<?xml version="1.0" encoding="UTF-8" standalone="no"?>
<svg
   xmlns:dc="http://purl.org/dc/elements/1.1/"
   xmlns:cc="http://creativecommons.org/ns#"
   xmlns:rdf="http://www.w3.org/1999/02/22-rdf-syntax-ns#"
   xmlns:svg="http://www.w3.org/2000/svg"
   xmlns="http://www.w3.org/2000/svg"
   id="svg8"
   version="1.1"
   viewBox="0 0 48 48"
   height="48"
   width="48">
  <defs
     id="defs2" />
  <metadata
     id="metadata5">
    <rdf:RDF>
      <cc:Work
         rdf:about="">
        <dc:format>image/svg+xml</dc:format>
        <dc:type
           rdf:resource="http://purl.org/dc/dcmitype/StillImage" />
        <dc:title></dc:title>
      </cc:Work>
    </rdf:RDF>
  </metadata>
  <g
     id="text911"
     style="font-style:normal;font-weight:normal;font-size:8px;line-height:125%;font-family:sans-serif;letter-spacing:0px;word-spacing:0px;fill:#000000;fill-opacity:1;stroke:none;stroke-width:1px;stroke-linecap:butt;stroke-linejoin:miter;stroke-opacity:1"
     aria-label="Dec 22, 2018">
    <path
       id="path921"
       style=""
       d="m 1.1975377,7.1392365 v 4.0800005 h 0.512 q 0.856,0 1.248,-0.512 0.4,-0.52 0.4,-1.4880005 -0.016,-0.984 -0.368,-1.528 -0.36,-0.552 -1.192,-0.552 z m -0.52800002,-0.472 H 1.8295377 q 0.648,0 1,0.176 0.344,0.168 0.6,0.504 0.248,0.32 0.368,0.792 0.12,0.472 0.12,1.048 0,0.576 -0.144,1.0320005 -0.136,0.44 -0.4,0.776 -0.256,0.328 -0.648,0.496 -0.096,0.04 -0.208,0.072 -0.112,0.032 -0.24,0.056 -0.128,0.016 -0.264,0.032 -0.136,0.008 -0.28,0.008 H 0.66953768 Z" />
    <path
       id="path923"
       style=""
       d="m 5.2055377,9.4592365 h 2.008 v -0.064 q 0,-0.008 0,-0.024 0.008,-0.024 0.008,-0.04 0,-0.208 -0.072,-0.384 -0.064,-0.16 -0.208,-0.304 -0.128,-0.128 -0.304,-0.216 -0.16,-0.08 -0.368,-0.08 -0.384,0 -0.68,0.264 -0.296,0.264 -0.384,0.848 z m 1.104,-1.552 q 0.296,0 0.56,0.104 0.28,0.112 0.472,0.312 0.224,0.232 0.336,0.544 0.12,0.32 0.12,0.776 0,0.016 -0.008,0.064 0,0.048 0,0.072 0,0.088 -0.008,0.128 h -2.6 q 0.016,0.3840005 0.128,0.6400005 0.128,0.28 0.296,0.424 0.192,0.168 0.392,0.232 0.192,0.064 0.432,0.064 0.576,0 0.944,-0.408 l 0.32,0.312 q -0.152,0.184 -0.352,0.312 -0.192,0.128 -0.424,0.184 -0.232,0.064 -0.504,0.064 -0.376,0 -0.736,-0.128 -0.328,-0.12 -0.56,-0.36 -0.224,-0.24 -0.36,-0.6 -0.128,-0.352 -0.128,-0.8080005 0,-0.456 0.136,-0.824 0.144,-0.384 0.352,-0.608 0.216,-0.224 0.536,-0.368 0.288,-0.128 0.656,-0.128 z" />
    <path
       id="path925"
       style=""
       d="m 11.893538,8.6032365 -0.408,0.472 q -0.032,-0.024 -0.032,-0.048 0,-0.016 -0.016,-0.08 -0.016,-0.056 -0.056,-0.12 -0.048,-0.072 -0.192,-0.192 -0.272,-0.224 -0.744,-0.224 -0.232,0 -0.4480003,0.096 -0.2,0.088 -0.368,0.28 -0.16,0.192 -0.256,0.432 -0.096,0.256 -0.096,0.56 0,0.3120005 0.096,0.5760005 0.096,0.264 0.264,0.456 0.16,0.184 0.4000003,0.296 0.24,0.112 0.512,0.112 0.552,0 0.952,-0.448 l 0.336,0.392 q -0.176,0.192 -0.392,0.32 -0.208,0.128 -0.448,0.192 -0.232,0.064 -0.496,0.064 -0.392,0 -0.7280003,-0.144 -0.328,-0.144 -0.576,-0.4 -0.248,-0.256 -0.376,-0.6 -0.136,-0.36 -0.136,-0.7680005 0,-0.4 0.136,-0.76 0.128,-0.344 0.376,-0.6 0.232,-0.248 0.592,-0.4 0.3360003,-0.144 0.7360003,-0.144 0.432,0 0.784,0.176 0.352,0.176 0.584,0.504 z" />
    <path
       id="path927"
       style=""
       d="m 16.861538,7.4432365 q 0.208,-0.368 0.592,-0.592 0.368,-0.216 0.8,-0.216 0.304,0 0.56,0.104 0.248,0.104 0.464,0.304 0.2,0.192 0.312,0.448 0.112,0.264 0.112,0.544 0,0.24 -0.072,0.44 -0.072,0.216 -0.176,0.392 -0.112,0.2 -0.256,0.368 -0.096,0.112 -0.312,0.312 l -0.48,0.448 -0.232,0.2320005 q -0.176,0.176 -0.256,0.28 -0.16,0.208 -0.24,0.32 -0.136,0.184 -0.208,0.336 h 2.088 q 0.032,0 0.088,-0.04 0.04,-0.032 0.08,-0.032 h 0.024 v 0.56 h -2.928 v -0.352 q 0.312,-0.616 0.64,-1.008 0.384,-0.4640005 0.664,-0.7120005 l 0.384,-0.352 q 0.176,-0.152 0.32,-0.344 0.152,-0.192 0.2,-0.296 0.072,-0.144 0.096,-0.28 0.024,-0.128 0.024,-0.264 0,-0.176 -0.072,-0.344 -0.064,-0.152 -0.2,-0.288 -0.136,-0.136 -0.304,-0.208 -0.184,-0.08 -0.336,-0.08 -0.192,0 -0.368,0.064 -0.168,0.064 -0.288,0.144 -0.144,0.104 -0.2,0.176 -0.072,0.088 -0.08,0.16 -0.008,0.048 -0.032,0.096 z" />
    <path
       id="path929"
       style=""
       d="m 20.861538,7.4432365 q 0.208,-0.368 0.592,-0.592 0.368,-0.216 0.8,-0.216 0.304,0 0.56,0.104 0.248,0.104 0.464,0.304 0.2,0.192 0.312,0.448 0.112,0.264 0.112,0.544 0,0.24 -0.072,0.44 -0.072,0.216 -0.176,0.392 -0.112,0.2 -0.256,0.368 -0.096,0.112 -0.312,0.312 l -0.48,0.448 -0.232,0.2320005 q -0.176,0.176 -0.256,0.28 -0.16,0.208 -0.24,0.32 -0.136,0.184 -0.208,0.336 h 2.088 q 0.032,0 0.088,-0.04 0.04,-0.032 0.08,-0.032 h 0.024 v 0.56 h -2.928 v -0.352 q 0.312,-0.616 0.64,-1.008 0.384,-0.4640005 0.664,-0.7120005 l 0.384,-0.352 q 0.176,-0.152 0.32,-0.344 0.152,-0.192 0.2,-0.296 0.072,-0.144 0.096,-0.28 0.024,-0.128 0.024,-0.264 0,-0.176 -0.072,-0.344 -0.064,-0.152 -0.2,-0.288 -0.136,-0.136 -0.304,-0.208 -0.184,-0.08 -0.336,-0.08 -0.192,0 -0.368,0.064 -0.168,0.064 -0.288,0.144 -0.144,0.104 -0.2,0.176 -0.072,0.088 -0.08,0.16 -0.008,0.048 -0.032,0.096 z" />
    <path
       id="path931"
       style=""
       d="m 26.685538,11.491237 q 0,0.624 -0.856,1.504 l -0.272,-0.24 q 0.232,-0.208 0.376,-0.448 0.144,-0.24 0.144,-0.392 0,-0.072 -0.064,-0.152 -0.024,-0.024 -0.144,-0.128 -0.08,-0.072 -0.136,-0.144 -0.064,-0.088 -0.064,-0.192 0,-0.2 0.136,-0.336 0.136,-0.136 0.336,-0.136 0.208,0 0.376,0.184 0.168,0.176 0.168,0.48 z" />
    <path
       id="path933"
       style=""
       d="m 32.861538,7.4432365 q 0.208,-0.368 0.592,-0.592 0.368,-0.216 0.8,-0.216 0.304,0 0.56,0.104 0.248,0.104 0.464,0.304 0.2,0.192 0.312,0.448 0.112,0.264 0.112,0.544 0,0.24 -0.072,0.44 -0.072,0.216 -0.176,0.392 -0.112,0.2 -0.256,0.368 -0.096,0.112 -0.312,0.312 l -0.48,0.448 -0.232,0.2320005 q -0.176,0.176 -0.256,0.28 -0.16,0.208 -0.24,0.32 -0.136,0.184 -0.208,0.336 h 2.088 q 0.032,0 0.088,-0.04 0.04,-0.032 0.08,-0.032 h 0.024 v 0.56 h -2.928 v -0.352 q 0.312,-0.616 0.64,-1.008 0.384,-0.4640005 0.664,-0.7120005 l 0.384,-0.352 q 0.176,-0.152 0.32,-0.344 0.152,-0.192 0.2,-0.296 0.072,-0.144 0.096,-0.28 0.024,-0.128 0.024,-0.264 0,-0.176 -0.072,-0.344 -0.064,-0.152 -0.2,-0.288 -0.136,-0.136 -0.304,-0.208 -0.184,-0.08 -0.336,-0.08 -0.192,0 -0.368,0.064 -0.168,0.064 -0.288,0.144 -0.144,0.104 -0.2,0.176 -0.072,0.088 -0.08,0.16 -0.008,0.048 -0.032,0.096 z" />
    <path
       id="path935"
       style=""
       d="m 39.213538,8.3072365 -1.76,2.2400005 q 0.2,0.376 0.4,0.52 0.224,0.16 0.424,0.16 0.208,0 0.408,-0.136 0.176,-0.12 0.32,-0.376 0.144,-0.248 0.224,-0.6 0.088,-0.3760005 0.088,-0.8080005 0,-0.28 -0.024,-0.528 -0.024,-0.264 -0.08,-0.472 z m -0.184,-0.536 q -0.144,-0.304 -0.368,-0.488 -0.192,-0.16 -0.424,-0.16 -0.208,0 -0.4,0.144 -0.176,0.136 -0.344,0.4 -0.152,0.24 -0.248,0.624 -0.088,0.344 -0.088,0.808 0,0.48 0.112,0.9440005 z m 0.296,-0.472 q 0.224,0.304 0.368,0.816 0.144,0.504 0.144,1.128 0,0.632 -0.144,1.0960005 -0.152,0.488 -0.368,0.784 -0.224,0.312 -0.512,0.464 -0.144,0.08 -0.288,0.112 -0.144,0.04 -0.296,0.04 -0.296,0 -0.592,-0.184 -0.288,-0.176 -0.512,-0.512 -0.232,-0.336 -0.36,-0.8 -0.128,-0.4560005 -0.128,-1.0400005 0,-0.584 0.128,-1.04 0.136,-0.488 0.36,-0.816 0.232,-0.344 0.512,-0.528 0.28,-0.184 0.592,-0.184 0.624,0 1.096,0.664 z" />
    <path
       id="path937"
       style=""
       d="m 42.629538,6.6592365 v 4.9920005 h -0.552 V 7.3552365 l -1.008,0.296 -0.128,-0.312 1.304,-0.68 z" />
    <path
       id="path939"
       style=""
       d="m 45.629538,8.2192365 q 0.096,0.16 0.256,0.28 0.12,0.096 0.352,0.216 l 0.136,0.072 q 0.296,-0.152 0.488,-0.432 0.192,-0.272 0.192,-0.552 0,-0.128 -0.064,-0.272 -0.064,-0.136 -0.16,-0.232 -0.088,-0.088 -0.256,-0.16 -0.152,-0.064 -0.312,-0.064 -0.16,0 -0.312,0.064 -0.128,0.056 -0.24,0.152 -0.096,0.088 -0.16,0.224 -0.056,0.12 -0.056,0.264 0,0.232 0.136,0.44 z m 0.504,1.008 q -0.36,0.152 -0.6,0.456 -0.24,0.304 -0.24,0.6560005 0,0.168 0.08,0.344 0.072,0.16 0.208,0.28 0.128,0.12 0.304,0.192 0.168,0.072 0.368,0.072 0.2,0 0.368,-0.072 0.208,-0.088 0.304,-0.176 0.128,-0.12 0.2,-0.272 0.072,-0.152 0.072,-0.344 0,-0.3680005 -0.288,-0.6800005 -0.272,-0.296 -0.776,-0.456 z m 1.464,-1.44 q 0,0.36 -0.216,0.68 -0.224,0.328 -0.576,0.52 0.44,0.208 0.696,0.568 0.264,0.368 0.264,0.8080005 0,0.28 -0.12,0.536 -0.128,0.272 -0.32,0.44 -0.2,0.176 -0.488,0.288 -0.264,0.104 -0.6,0.104 -0.336,0 -0.6,-0.104 -0.304,-0.12 -0.488,-0.28 -0.184,-0.168 -0.32,-0.432 -0.112,-0.224 -0.112,-0.52 0,-0.4400005 0.272,-0.8080005 0.288,-0.384 0.728,-0.584 -0.352,-0.184 -0.552,-0.488 -0.208,-0.32 -0.208,-0.68 0,-0.264 0.104,-0.48 0.104,-0.224 0.288,-0.392 0.176,-0.168 0.424,-0.264 0.24,-0.096 0.52,-0.096 0.296,0 0.52,0.088 0.264,0.104 0.416,0.256 0.184,0.184 0.272,0.384 0.096,0.216 0.096,0.456 z" />
  </g>
  <g
     id="text915"
     style="font-style:normal;font-weight:normal;font-size:16px;line-height:125%;font-family:sans-serif;letter-spacing:0px;word-spacing:0px;fill:#000000;fill-opacity:1;stroke:none;stroke-width:1px;stroke-linecap:butt;stroke-linejoin:miter;stroke-opacity:1"
     aria-label="↓">
    <path
       id="path942"
       style=""
       d="m 27.099423,24.254634 -2.992,3.792 h -0.352 l -2.768,-3.824 0.8,-0.528 1.696,2.304 v -8.736 h 1.056 v 8.736 l 1.872,-2.304 z" />
  </g>
  <g
     id="text919"
     style="font-style:normal;font-weight:normal;font-size:8px;line-height:125%;font-family:sans-serif;letter-spacing:0px;word-spacing:0px;fill:#000000;fill-opacity:1;stroke:none;stroke-width:1px;stroke-linecap:butt;stroke-linejoin:miter;stroke-opacity:1"
     aria-label="2018-12-22">
    <path
       id="path945"
       style=""
       d="m 5.5126399,34.014725 q 0.208,-0.368 0.592,-0.592 0.368,-0.216 0.8,-0.216 0.304,0 0.56,0.104 0.248,0.104 0.464,0.304 0.2,0.192 0.312,0.448 0.112,0.264 0.112,0.544 0,0.24 -0.072,0.44 -0.072,0.216 -0.176,0.392 -0.112,0.2 -0.256,0.368 -0.096,0.112 -0.312,0.312 l -0.48,0.448 -0.232,0.232 q -0.176,0.176 -0.256,0.28 -0.16,0.208 -0.24,0.32 -0.136,0.184 -0.208,0.336 h 2.088 q 0.032,0 0.088,-0.04 0.04,-0.032 0.08,-0.032 h 0.024 v 0.56 h -2.928 v -0.352 q 0.312,-0.616 0.64,-1.008 0.384,-0.464 0.664,-0.712 l 0.384,-0.352 q 0.176,-0.152 0.32,-0.344 0.152,-0.192 0.2,-0.296 0.072,-0.144 0.096,-0.28 0.024,-0.128 0.024,-0.264 0,-0.176 -0.072,-0.344 -0.064,-0.152 -0.2,-0.288 -0.136,-0.136 -0.304,-0.208 -0.184,-0.08 -0.336,-0.08 -0.192,0 -0.368,0.064 -0.168,0.064 -0.288,0.144 -0.144,0.104 -0.2,0.176 -0.072,0.088 -0.08,0.16 -0.008,0.048 -0.032,0.096 z" />
    <path
       id="path947"
       style=""
       d="m 11.86464,34.878725 -1.76,2.24 q 0.2,0.376 0.4,0.52 0.224,0.16 0.424,0.16 0.208,0 0.408,-0.136 0.176,-0.12 0.32,-0.376 0.144,-0.248 0.224,-0.6 0.088,-0.376 0.088,-0.808 0,-0.28 -0.024,-0.528 -0.024,-0.264 -0.08,-0.472 z m -0.184,-0.536 q -0.144,-0.304 -0.368,-0.488 -0.192,-0.16 -0.424,-0.16 -0.208,0 -0.4,0.144 -0.176,0.136 -0.344,0.4 -0.1520001,0.24 -0.2480001,0.624 -0.088,0.344 -0.088,0.808 0,0.48 0.112,0.944 z m 0.296,-0.472 q 0.224,0.304 0.368,0.816 0.144,0.504 0.144,1.128 0,0.632 -0.144,1.096 -0.152,0.488 -0.368,0.784 -0.224,0.312 -0.512,0.464 -0.144,0.08 -0.288,0.112 -0.144,0.04 -0.296,0.04 -0.296,0 -0.592,-0.184 -0.288,-0.176 -0.5120001,-0.512 -0.232,-0.336 -0.36,-0.8 -0.128,-0.456 -0.128,-1.04 0,-0.584 0.128,-1.04 0.136,-0.488 0.36,-0.816 0.2320001,-0.344 0.5120001,-0.528 0.28,-0.184 0.592,-0.184 0.624,0 1.096,0.664 z" />
    <path
       id="path949"
       style=""
       d="m 15.28064,33.230725 v 4.992 h -0.552 v -4.296 l -1.008,0.296 -0.128,-0.312 1.304,-0.68 z" />
    <path
       id="path951"
       style=""
       d="m 18.28064,34.790725 q 0.096,0.16 0.256,0.28 0.12,0.096 0.352,0.216 l 0.136,0.072 q 0.296,-0.152 0.488,-0.432 0.192,-0.272 0.192,-0.552 0,-0.128 -0.064,-0.272 -0.064,-0.136 -0.16,-0.232 -0.088,-0.088 -0.256,-0.16 -0.152,-0.064 -0.312,-0.064 -0.16,0 -0.312,0.064 -0.128,0.056 -0.24,0.152 -0.096,0.088 -0.16,0.224 -0.056,0.12 -0.056,0.264 0,0.232 0.136,0.44 z m 0.504,1.008 q -0.36,0.152 -0.6,0.456 -0.24,0.304 -0.24,0.656 0,0.168 0.08,0.344 0.072,0.16 0.208,0.28 0.128,0.12 0.304,0.192 0.168,0.072 0.368,0.072 0.2,0 0.368,-0.072 0.208,-0.088 0.304,-0.176 0.128,-0.12 0.2,-0.272 0.072,-0.152 0.072,-0.344 0,-0.368 -0.288,-0.68 -0.272,-0.296 -0.776,-0.456 z m 1.464,-1.44 q 0,0.36 -0.216,0.68 -0.224,0.328 -0.576,0.52 0.44,0.208 0.696,0.568 0.264,0.368 0.264,0.808 0,0.28 -0.12,0.536 -0.128,0.272 -0.32,0.44 -0.2,0.176 -0.488,0.288 -0.264,0.104 -0.6,0.104 -0.336,0 -0.6,-0.104 -0.304,-0.12 -0.488,-0.28 -0.184,-0.168 -0.32,-0.432 -0.112,-0.224 -0.112,-0.52 0,-0.44 0.272,-0.808 0.288,-0.384 0.728,-0.584 -0.352,-0.184 -0.552,-0.488 -0.208,-0.32 -0.208,-0.68 0,-0.264 0.104,-0.48 0.104,-0.224 0.288,-0.392 0.176,-0.168 0.424,-0.264 0.24,-0.096 0.52,-0.096 0.296,0 0.52,0.088 0.264,0.104 0.416,0.256 0.184,0.184 0.272,0.384 0.096,0.216 0.096,0.456 z" />
    <path
       id="path953"
       style=""
       d="m 21.45664,35.438725 h 2.88 v 0.536 h -2.88 z" />
    <path
       id="path955"
       style=""
       d="m 27.28064,33.230725 v 4.992 h -0.552 v -4.296 l -1.008,0.296 -0.128,-0.312 1.304,-0.68 z" />
    <path
       id="path957"
       style=""
       d="m 29.51264,34.014725 q 0.208,-0.368 0.592,-0.592 0.368,-0.216 0.8,-0.216 0.304,0 0.56,0.104 0.248,0.104 0.464,0.304 0.2,0.192 0.312,0.448 0.112,0.264 0.112,0.544 0,0.24 -0.072,0.44 -0.072,0.216 -0.176,0.392 -0.112,0.2 -0.256,0.368 -0.096,0.112 -0.312,0.312 l -0.48,0.448 -0.232,0.232 q -0.176,0.176 -0.256,0.28 -0.16,0.208 -0.24,0.32 -0.136,0.184 -0.208,0.336 h 2.088 q 0.032,0 0.088,-0.04 0.04,-0.032 0.08,-0.032 h 0.024 v 0.56 h -2.928 v -0.352 q 0.312,-0.616 0.64,-1.008 0.384,-0.464 0.664,-0.712 l 0.384,-0.352 q 0.176,-0.152 0.32,-0.344 0.152,-0.192 0.2,-0.296 0.072,-0.144 0.096,-0.28 0.024,-0.128 0.024,-0.264 0,-0.176 -0.072,-0.344 -0.064,-0.152 -0.2,-0.288 -0.136,-0.136 -0.304,-0.208 -0.184,-0.08 -0.336,-0.08 -0.192,0 -0.368,0.064 -0.168,0.064 -0.288,0.144 -0.144,0.104 -0.2,0.176 -0.072,0.088 -0.08,0.16 -0.008,0.048 -0.032,0.096 z" />
    <path
       id="path959"
       style=""
       d="m 33.45664,35.438725 h 2.88 v 0.536 h -2.88 z" />
    <path
       id="path961"
       style=""
       d="m 37.51264,34.014725 q 0.208,-0.368 0.592,-0.592 0.368,-0.216 0.8,-0.216 0.304,0 0.56,0.104 0.248,0.104 0.464,0.304 0.2,0.192 0.312,0.448 0.112,0.264 0.112,0.544 0,0.24 -0.072,0.44 -0.072,0.216 -0.176,0.392 -0.112,0.2 -0.256,0.368 -0.096,0.112 -0.312,0.312 l -0.48,0.448 -0.232,0.232 q -0.176,0.176 -0.256,0.28 -0.16,0.208 -0.24,0.32 -0.136,0.184 -0.208,0.336 h 2.088 q 0.032,0 0.088,-0.04 0.04,-0.032 0.08,-0.032 h 0.024 v 0.56 h -2.928 v -0.352 q 0.312,-0.616 0.64,-1.008 0.384,-0.464 0.664,-0.712 l 0.384,-0.352 q 0.176,-0.152 0.32,-0.344 0.152,-0.192 0.2,-0.296 0.072,-0.144 0.096,-0.28 0.024,-0.128 0.024,-0.264 0,-0.176 -0.072,-0.344 -0.064,-0.152 -0.2,-0.288 -0.136,-0.136 -0.304,-0.208 -0.184,-0.08 -0.336,-0.08 -0.192,0 -0.368,0.064 -0.168,0.064 -0.288,0.144 -0.144,0.104 -0.2,0.176 -0.072,0.088 -0.08,0.16 -0.008,0.048 -0.032,0.096 z" />
    <path
       id="path963"
       style=""
       d="m 41.51264,34.014725 q 0.208,-0.368 0.592,-0.592 0.368,-0.216 0.8,-0.216 0.304,0 0.56,0.104 0.248,0.104 0.464,0.304 0.2,0.192 0.312,0.448 0.112,0.264 0.112,0.544 0,0.24 -0.072,0.44 -0.072,0.216 -0.176,0.392 -0.112,0.2 -0.256,0.368 -0.096,0.112 -0.312,0.312 l -0.48,0.448 -0.232,0.232 q -0.176,0.176 -0.256,0.28 -0.16,0.208 -0.24,0.32 -0.136,0.184 -0.208,0.336 h 2.088 q 0.032,0 0.088,-0.04 0.04,-0.032 0.08,-0.032 h 0.024 v 0.56 h -2.928 v -0.352 q 0.312,-0.616 0.64,-1.008 0.384,-0.464 0.664,-0.712 l 0.384,-0.352 q 0.176,-0.152 0.32,-0.344 0.152,-0.192 0.2,-0.296 0.072,-0.144 0.096,-0.28 0.024,-0.128 0.024,-0.264 0,-0.176 -0.072,-0.344 -0.064,-0.152 -0.2,-0.288 -0.136,-0.136 -0.304,-0.208 -0.184,-0.08 -0.336,-0.08 -0.192,0 -0.368,0.064 -0.168,0.064 -0.288,0.144 -0.144,0.104 -0.2,0.176 -0.072,0.088 -0.08,0.16 -0.008,0.048 -0.032,0.096 z" />
  </g>
</svg>
