<?xml version="1.0" encoding="UTF-8" standalone="no"?>
<svg
   xmlns:dc="http://purl.org/dc/elements/1.1/"
   xmlns:cc="http://creativecommons.org/ns#"
   xmlns:rdf="http://www.w3.org/1999/02/22-rdf-syntax-ns#"
   xmlns:svg="http://www.w3.org/2000/svg"
   xmlns="http://www.w3.org/2000/svg"
   xmlns:sodipodi="http://sodipodi.sourceforge.net/DTD/sodipodi-0.dtd"
   xmlns:inkscape="http://www.inkscape.org/namespaces/inkscape"
   width="48"
   height="48"
   viewBox="0 0 12.7 12.7"
   version="1.1"
   id="svg8"
   sodipodi:docname="icon.svg"
   inkscape:version="0.92.2 2405546, 2018-03-11">
  <sodipodi:namedview
     pagecolor="#ffffff"
     bordercolor="#666666"
     borderopacity="1"
     objecttolerance="10"
     gridtolerance="10"
     guidetolerance="10"
     inkscape:pageopacity="0"
     inkscape:pageshadow="2"
     inkscape:window-width="3840"
     inkscape:window-height="2129"
     id="namedview873"
     showgrid="false"
     inkscape:zoom="40.5"
     inkscape:cx="23.975309"
     inkscape:cy="24"
     inkscape:window-x="3840"
     inkscape:window-y="31"
     inkscape:window-maximized="0"
     inkscape:current-layer="text1009" />
  <defs
     id="defs2" />
  <metadata
     id="metadata5">
    <rdf:RDF>
      <cc:Work
         rdf:about="">
        <dc:format>image/svg+xml</dc:format>
        <dc:type
           rdf:resource="http://purl.org/dc/dcmitype/StillImage" />
        <dc:title></dc:title>
      </cc:Work>
    </rdf:RDF>
  </metadata>
  <g
     aria-label="Dec 22, 2018"
     style="font-style:normal;font-weight:normal;font-size:2.11666656px;line-height:125%;font-family:sans-serif;letter-spacing:0px;word-spacing:0px;fill:#000000;fill-opacity:1;stroke:none;stroke-width:0.26458332px;stroke-linecap:butt;stroke-linejoin:miter;stroke-opacity:1"
     id="text1001">
    <path
       d="m 0.27247787,1.7103181 v 1.0795 h 0.13546666 q 0.22648332,0 0.33019998,-0.1354667 0.10583333,-0.1375833 0.10583333,-0.3937 -0.004233,-0.26035 -0.0973667,-0.4042833 -0.09525,-0.14605 -0.31538331,-0.14605 z m -0.1397,-0.1248833 h 0.30691665 q 0.17144999,0 0.26458332,0.046567 0.0910167,0.04445 0.15875,0.13335 0.0656167,0.084667 0.0973667,0.2095499 0.03175,0.1248834 0.03175,0.2772834 0,0.1524 -0.0381,0.2730499 -0.0359833,0.1164167 -0.10583333,0.2053167 -0.0677333,0.086783 -0.17144999,0.1312333 -0.0254,0.010583 -0.0550333,0.01905 -0.0296333,0.00847 -0.0635,0.014817 -0.0338667,0.00423 -0.06985,0.00847 -0.0359833,0.00212 -0.0740833,0.00212 H 0.13277787 Z"
       style="font-size:2.11666656px;stroke-width:0.26458332px"
       id="path875" />
    <path
       d="m 1.3329278,2.3241514 h 0.5312833 v -0.016933 q 0,-0.00212 0,-0.00635 0.00212,-0.00635 0.00212,-0.010583 0,-0.055033 -0.01905,-0.1016 -0.016933,-0.042333 -0.055033,-0.080433 -0.033867,-0.033867 -0.080433,-0.05715 -0.042333,-0.021167 -0.097367,-0.021167 -0.1016,0 -0.1799167,0.06985 -0.078317,0.06985 -0.1016,0.2243666 z m 0.2921,-0.4106333 q 0.078317,0 0.1481667,0.027517 0.074083,0.029633 0.1248833,0.08255 0.059267,0.061383 0.0889,0.1439333 0.03175,0.084667 0.03175,0.2053167 0,0.00423 -0.00212,0.016933 0,0.0127 0,0.01905 0,0.023283 -0.00212,0.033867 H 1.3265778 q 0.00423,0.1015999 0.033867,0.1693333 0.033867,0.074083 0.078317,0.1121833 0.0508,0.04445 0.1037167,0.061383 0.0508,0.016933 0.1143,0.016933 0.1524,0 0.2497666,-0.10795 l 0.084667,0.08255 q -0.040217,0.048683 -0.093133,0.08255 -0.0508,0.033867 -0.1121833,0.048683 -0.061383,0.016933 -0.13335,0.016933 -0.099483,0 -0.1947334,-0.033867 -0.086783,-0.03175 -0.1481666,-0.09525 -0.059267,-0.0635 -0.09525,-0.15875 -0.033867,-0.093133 -0.033867,-0.2137833 0,-0.12065 0.035983,-0.2180167 0.0381,-0.1016 0.093133,-0.1608667 0.05715,-0.059267 0.1418166,-0.097367 0.0762,-0.033867 0.1735667,-0.033867 z"
       style="font-size:2.11666656px;stroke-width:0.26458332px"
       id="path877" />
    <path
       d="m 3.1024611,2.0976681 -0.10795,0.1248833 q -0.00847,-0.00635 -0.00847,-0.0127 0,-0.00423 -0.00423,-0.021167 -0.00423,-0.014817 -0.014817,-0.03175 -0.0127,-0.01905 -0.0508,-0.0508 -0.071967,-0.059267 -0.19685,-0.059267 -0.061383,0 -0.1185333,0.0254 -0.052917,0.023283 -0.097367,0.074083 -0.042333,0.0508 -0.067733,0.1143 -0.0254,0.067733 -0.0254,0.1481667 0,0.08255 0.0254,0.1524 0.0254,0.06985 0.06985,0.12065 0.042333,0.048683 0.1058333,0.078317 0.0635,0.029633 0.1354667,0.029633 0.14605,0 0.2518833,-0.1185334 l 0.0889,0.1037167 q -0.046567,0.0508 -0.1037167,0.084667 -0.055033,0.033867 -0.1185333,0.0508 -0.061383,0.016933 -0.1312333,0.016933 -0.1037167,0 -0.1926167,-0.0381 -0.086783,-0.0381 -0.1524,-0.1058333 -0.065617,-0.067733 -0.099483,-0.15875 -0.035983,-0.09525 -0.035983,-0.2032 0,-0.1058333 0.035983,-0.2010833 0.033867,-0.091017 0.099483,-0.15875 0.061383,-0.065617 0.1566333,-0.1058334 0.0889,-0.0381 0.1947334,-0.0381 0.1143,0 0.2074333,0.046567 0.093133,0.046567 0.1545167,0.13335 z"
       style="font-size:2.11666656px;stroke-width:0.26458332px"
       id="path879" />
    <path
       d="m 4.416911,1.7907515 q 0.055033,-0.097367 0.1566333,-0.1566334 0.097367,-0.05715 0.2116667,-0.05715 0.080433,0 0.1481666,0.027517 0.065617,0.027517 0.1227667,0.080433 0.052917,0.0508 0.08255,0.1185334 0.029633,0.06985 0.029633,0.1439333 0,0.0635 -0.01905,0.1164166 -0.01905,0.05715 -0.046567,0.1037167 -0.029633,0.052917 -0.067733,0.097367 -0.0254,0.029633 -0.08255,0.08255 l -0.127,0.1185333 -0.061383,0.061383 q -0.046567,0.046567 -0.067733,0.074083 -0.042333,0.055033 -0.0635,0.084667 -0.035983,0.048683 -0.055033,0.0889 h 0.55245 q 0.00847,0 0.023283,-0.010583 0.010583,-0.00847 0.021167,-0.00847 h 0.00635 v 0.1481667 h -0.7747 v -0.093133 q 0.08255,-0.1629833 0.1693334,-0.2667 0.1016,-0.1227666 0.1756833,-0.1883833 l 0.1016,-0.093133 q 0.046567,-0.040217 0.084667,-0.091017 0.040217,-0.0508 0.052917,-0.078317 0.01905,-0.0381 0.0254,-0.074083 0.00635,-0.033867 0.00635,-0.06985 0,-0.046567 -0.01905,-0.091017 -0.016933,-0.040217 -0.052917,-0.0762 -0.035983,-0.035983 -0.080433,-0.055033 -0.048683,-0.021167 -0.0889,-0.021167 -0.0508,0 -0.097367,0.016933 -0.04445,0.016933 -0.0762,0.0381 -0.0381,0.027517 -0.052917,0.046567 -0.01905,0.023283 -0.021167,0.042333 -0.00212,0.0127 -0.00847,0.0254 z"
       style="font-size:2.11666656px;stroke-width:0.26458332px"
       id="path881" />
    <path
       d="m 5.4752444,1.7907515 q 0.055033,-0.097367 0.1566333,-0.1566334 0.097367,-0.05715 0.2116667,-0.05715 0.080433,0 0.1481666,0.027517 0.065617,0.027517 0.1227667,0.080433 0.052917,0.0508 0.08255,0.1185334 0.029633,0.06985 0.029633,0.1439333 0,0.0635 -0.01905,0.1164166 -0.01905,0.05715 -0.046567,0.1037167 -0.029633,0.052917 -0.067733,0.097367 -0.0254,0.029633 -0.08255,0.08255 l -0.127,0.1185333 -0.061383,0.061383 q -0.046567,0.046567 -0.067733,0.074083 -0.042333,0.055033 -0.0635,0.084667 -0.035983,0.048683 -0.055033,0.0889 h 0.55245 q 0.00847,0 0.023283,-0.010583 0.010583,-0.00847 0.021167,-0.00847 h 0.00635 v 0.1481667 h -0.7747 v -0.093133 q 0.08255,-0.1629833 0.1693334,-0.2667 0.1016,-0.1227666 0.1756833,-0.1883833 l 0.1016,-0.093133 q 0.046567,-0.040217 0.084667,-0.091017 0.040217,-0.0508 0.052917,-0.078317 0.01905,-0.0381 0.0254,-0.074083 0.00635,-0.033867 0.00635,-0.06985 0,-0.046567 -0.01905,-0.091017 -0.016933,-0.040217 -0.052917,-0.0762 -0.035983,-0.035983 -0.080433,-0.055033 -0.048683,-0.021167 -0.0889,-0.021167 -0.0508,0 -0.097367,0.016933 -0.04445,0.016933 -0.0762,0.0381 -0.0381,0.027517 -0.052917,0.046567 -0.01905,0.023283 -0.021167,0.042333 -0.00212,0.0127 -0.00847,0.0254 z"
       style="font-size:2.11666656px;stroke-width:0.26458332px"
       id="path883" />
    <path
       d="m 7.0161773,2.8617847 q 0,0.1651 -0.2264833,0.3979333 l -0.071967,-0.0635 q 0.061383,-0.055033 0.099483,-0.1185333 0.0381,-0.0635 0.0381,-0.1037166 0,-0.01905 -0.016933,-0.040217 -0.00635,-0.00635 -0.0381,-0.033867 -0.021167,-0.01905 -0.035983,-0.0381 -0.016933,-0.023283 -0.016933,-0.0508 0,-0.052917 0.035983,-0.0889 0.035983,-0.035983 0.0889,-0.035983 0.055033,0 0.099483,0.048683 0.04445,0.046567 0.04445,0.127 z"
       style="font-size:2.11666656px;stroke-width:0.26458332px"
       id="path885" />
    <path
       d="m 8.6502441,1.7907515 q 0.055033,-0.097367 0.1566333,-0.1566334 0.097367,-0.05715 0.2116667,-0.05715 0.080433,0 0.1481666,0.027517 0.065617,0.027517 0.1227667,0.080433 0.052917,0.0508 0.08255,0.1185334 0.029633,0.06985 0.029633,0.1439333 0,0.0635 -0.01905,0.1164166 -0.01905,0.05715 -0.046567,0.1037167 -0.029633,0.052917 -0.067733,0.097367 -0.0254,0.029633 -0.08255,0.08255 l -0.127,0.1185333 -0.061383,0.061383 q -0.046567,0.046567 -0.067733,0.074083 -0.042333,0.055033 -0.0635,0.084667 -0.035983,0.048683 -0.055033,0.0889 h 0.5524499 q 0.00847,0 0.023283,-0.010583 0.010583,-0.00847 0.021167,-0.00847 h 0.00635 V 2.9041181 H 8.6396608 v -0.093133 q 0.08255,-0.1629833 0.1693333,-0.2667 0.1016,-0.1227666 0.1756833,-0.1883833 l 0.1016,-0.093133 q 0.046567,-0.040217 0.084667,-0.091017 0.040217,-0.0508 0.052917,-0.078317 0.01905,-0.0381 0.0254,-0.074083 0.00635,-0.033867 0.00635,-0.06985 0,-0.046567 -0.01905,-0.091017 -0.016933,-0.040217 -0.052917,-0.0762 -0.035983,-0.035983 -0.080433,-0.055033 -0.048683,-0.021167 -0.0889,-0.021167 -0.0508,0 -0.097367,0.016933 -0.04445,0.016933 -0.0762,0.0381 -0.0381,0.027517 -0.052917,0.046567 -0.01905,0.023283 -0.021167,0.042333 -0.00212,0.0127 -0.00847,0.0254 z"
       style="font-size:2.11666656px;stroke-width:0.26458332px"
       id="path887" />
    <path
       d="M 10.330877,2.0193514 9.8652108,2.6120181 q 0.052917,0.099483 0.1058333,0.1375833 0.059267,0.042333 0.1121829,0.042333 0.05503,0 0.10795,-0.035983 0.04657,-0.03175 0.08467,-0.099483 0.0381,-0.065617 0.05927,-0.15875 0.02328,-0.099483 0.02328,-0.2137833 0,-0.074083 -0.0064,-0.1397 -0.0063,-0.06985 -0.02117,-0.1248834 z m -0.04868,-0.1418166 q -0.0381,-0.080433 -0.09737,-0.1291167 -0.0508,-0.042333 -0.112183,-0.042333 -0.05503,0 -0.1058332,0.0381 -0.046567,0.035983 -0.091017,0.1058333 -0.040217,0.0635 -0.065617,0.1651 -0.023283,0.091017 -0.023283,0.2137833 0,0.127 0.029633,0.2497667 z m 0.07832,-0.1248833 q 0.05927,0.080433 0.09737,0.2158999 0.0381,0.13335 0.0381,0.29845 0,0.1672167 -0.0381,0.2899833 -0.04022,0.1291167 -0.09737,0.2074334 -0.05927,0.08255 -0.135467,0.1227666 -0.0381,0.021167 -0.0762,0.029633 -0.0381,0.010583 -0.07832,0.010583 -0.078316,0 -0.1566329,-0.048683 -0.0762,-0.046567 -0.1354666,-0.1354667 -0.061383,-0.0889 -0.09525,-0.2116667 -0.033867,-0.1206499 -0.033867,-0.2751666 0,-0.1545167 0.033867,-0.2751667 0.035983,-0.1291166 0.09525,-0.2158999 0.061383,-0.091017 0.1354666,-0.1397 0.074083,-0.048683 0.1566329,-0.048683 0.1651,0 0.289984,0.1756834 z"
       style="font-size:2.11666656px;stroke-width:0.26458332px"
       id="path889" />
    <path
       d="m 11.234694,1.5833181 v 1.3208 h -0.14605 v -1.13665 l -0.2667,0.078317 -0.03387,-0.08255 0.345016,-0.1799167 z"
       style="font-size:2.11666656px;stroke-width:0.26458332px"
       id="path891" />
    <path
       d="m 12.028444,1.9960681 q 0.0254,0.042333 0.06773,0.074083 0.03175,0.0254 0.09313,0.05715 l 0.03598,0.01905 q 0.07832,-0.040217 0.129117,-0.1143 0.0508,-0.071967 0.0508,-0.14605 0,-0.033867 -0.01693,-0.071967 -0.01693,-0.035983 -0.04233,-0.061383 -0.02328,-0.023283 -0.06773,-0.042333 -0.04022,-0.016933 -0.08255,-0.016933 -0.04233,0 -0.08255,0.016933 -0.03387,0.014817 -0.0635,0.040217 -0.0254,0.023283 -0.04233,0.059267 -0.01482,0.03175 -0.01482,0.06985 0,0.061383 0.03598,0.1164167 z m 0.13335,0.2667 q -0.09525,0.040217 -0.15875,0.12065 -0.0635,0.080433 -0.0635,0.1735666 0,0.04445 0.02117,0.091017 0.01905,0.042333 0.05503,0.074083 0.03387,0.03175 0.08043,0.0508 0.04445,0.01905 0.09737,0.01905 0.05292,0 0.09737,-0.01905 0.05503,-0.023283 0.08043,-0.046567 0.03387,-0.03175 0.05292,-0.071967 0.01905,-0.040217 0.01905,-0.091017 0,-0.097367 -0.0762,-0.1799166 -0.07197,-0.078317 -0.205317,-0.12065 z m 0.38735,-0.381 q 0,0.09525 -0.05715,0.1799167 -0.05927,0.086783 -0.1524,0.1375833 0.116417,0.055033 0.18415,0.1502833 0.06985,0.097367 0.06985,0.2137833 0,0.074083 -0.03175,0.1418167 -0.03387,0.071967 -0.08467,0.1164167 -0.05292,0.046567 -0.129117,0.0762 -0.06985,0.027517 -0.15875,0.027517 -0.0889,0 -0.15875,-0.027517 -0.08043,-0.03175 -0.129117,-0.074083 -0.04868,-0.04445 -0.08467,-0.1143 -0.02963,-0.059267 -0.02963,-0.1375833 0,-0.1164166 0.07197,-0.2137833 0.0762,-0.1016 0.192617,-0.1545167 -0.09313,-0.048683 -0.14605,-0.1291166 -0.05503,-0.084667 -0.05503,-0.1799167 0,-0.06985 0.02752,-0.127 0.02752,-0.059267 0.0762,-0.1037166 0.04657,-0.04445 0.112183,-0.06985 0.0635,-0.0254 0.137584,-0.0254 0.07832,0 0.137583,0.023283 0.06985,0.027517 0.110067,0.067733 0.04868,0.048683 0.07197,0.1016 0.0254,0.05715 0.0254,0.12065 z"
       style="font-size:2.11666656px;stroke-width:0.26458332px"
       id="path893" />
  </g>
  <g
     aria-label="↓"
     style="font-style:normal;font-weight:normal;font-size:3.52777767px;line-height:125%;font-family:sans-serif;letter-spacing:0px;word-spacing:0px;fill:#000000;fill-opacity:1;stroke:none;stroke-width:0.26458332px;stroke-linecap:butt;stroke-linejoin:miter;stroke-opacity:1"
     id="text1005">
    <path
       d="M 7.067503,6.3136019 6.4078086,7.1496853 H 6.3301975 L 5.719892,6.3065464 5.8962808,6.1901297 l 0.3739445,0.508 V 4.7719631 h 0.2328333 v 1.9261666 l 0.41275,-0.508 z"
       style="font-size:3.52777767px;stroke-width:0.26458332px"
       id="path896" />
  </g>
  <g
     aria-label="2018-12-22"
     style="font-style:normal;font-weight:normal;font-size:2.11666656px;line-height:125%;font-family:sans-serif;letter-spacing:0px;word-spacing:0px;fill:#000000;fill-opacity:1;stroke:none;stroke-width:0.26458332px;stroke-linecap:butt;stroke-linejoin:miter;stroke-opacity:1"
     id="text1009">
    <path
       d="m 1.2174738,9.1544805 q 0.055033,-0.097367 0.1566333,-0.1566334 0.097367,-0.05715 0.2116666,-0.05715 0.080433,0 0.1481667,0.027517 0.065617,0.027517 0.1227667,0.080433 0.052917,0.0508 0.08255,0.1185334 0.029633,0.06985 0.029633,0.1439333 0,0.0635 -0.01905,0.1164166 -0.01905,0.05715 -0.046567,0.1037167 -0.029633,0.052917 -0.067733,0.097367 -0.0254,0.029633 -0.08255,0.08255 l -0.127,0.1185333 -0.061383,0.061383 q -0.046567,0.046567 -0.067733,0.074083 -0.042333,0.055033 -0.0635,0.084666 -0.035983,0.04868 -0.055033,0.0889 h 0.55245 q 0.00847,0 0.023283,-0.01058 0.010583,-0.0085 0.021167,-0.0085 h 0.00635 v 0.148167 h -0.7747 v -0.09313 q 0.08255,-0.162984 0.1693333,-0.2667003 0.1016,-0.1227666 0.1756834,-0.1883833 l 0.1016,-0.093133 q 0.046567,-0.040217 0.084667,-0.091017 0.040217,-0.0508 0.052917,-0.078317 0.01905,-0.0381 0.0254,-0.074083 0.00635,-0.033867 0.00635,-0.06985 0,-0.046567 -0.01905,-0.091017 -0.016933,-0.040217 -0.052917,-0.0762 -0.035983,-0.035983 -0.080433,-0.055033 -0.048683,-0.021167 -0.0889,-0.021167 -0.0508,0 -0.097367,0.016933 -0.04445,0.016933 -0.0762,0.0381 -0.0381,0.027517 -0.052917,0.046567 -0.01905,0.023283 -0.021167,0.042333 -0.00212,0.0127 -0.00847,0.0254 z"
       style="font-size:2.11666656px;stroke-width:0.26458332px"
       id="path899" />
    <path
       d="M 2.898107,9.3830804 2.4324404,9.9757471 q 0.052917,0.099483 0.1058333,0.1375829 0.059267,0.04233 0.1121833,0.04233 0.055033,0 0.10795,-0.03598 0.046567,-0.03175 0.084667,-0.09948 0.0381,-0.065617 0.059267,-0.1587499 0.023283,-0.099483 0.023283,-0.2137833 0,-0.074083 -0.00635,-0.1397 -0.00635,-0.06985 -0.021167,-0.1248834 z M 2.8494237,9.2412638 q -0.0381,-0.080433 -0.097367,-0.1291167 -0.0508,-0.042333 -0.1121833,-0.042333 -0.055033,0 -0.1058333,0.0381 -0.046567,0.035983 -0.091017,0.1058333 -0.040217,0.0635 -0.065617,0.1651 -0.023283,0.091017 -0.023283,0.2137833 0,0.127 0.029633,0.2497667 z m 0.078317,-0.1248833 q 0.059267,0.080433 0.097367,0.2158999 0.0381,0.13335 0.0381,0.29845 0,0.1672167 -0.0381,0.2899833 -0.040217,0.1291163 -0.097367,0.2074333 -0.059267,0.08255 -0.1354666,0.122767 -0.0381,0.02117 -0.0762,0.02963 -0.0381,0.01058 -0.078317,0.01058 -0.078317,0 -0.1566333,-0.04868 -0.0762,-0.04657 -0.1354667,-0.135467 -0.061383,-0.0889 -0.09525,-0.2116663 -0.033867,-0.1206499 -0.033867,-0.2751666 0,-0.1545167 0.033867,-0.2751667 0.035983,-0.1291166 0.09525,-0.2158999 0.061383,-0.091017 0.1354667,-0.1397 0.074083,-0.048683 0.1566333,-0.048683 0.1651,0 0.2899833,0.1756834 z"
       style="font-size:2.11666656px;stroke-width:0.26458332px"
       id="path901" />
    <path
       d="m 3.8019236,8.9470471 v 1.3207999 h -0.14605 V 9.1311971 l -0.2667,0.078317 -0.033867,-0.08255 0.3450166,-0.1799167 z"
       style="font-size:2.11666656px;stroke-width:0.26458332px"
       id="path903" />
    <path
       d="m 4.5956735,9.3597971 q 0.0254,0.042333 0.067733,0.074083 0.03175,0.0254 0.093133,0.05715 l 0.035983,0.01905 q 0.078317,-0.040217 0.1291166,-0.1143 0.0508,-0.071967 0.0508,-0.14605 0,-0.033867 -0.016933,-0.071967 -0.016933,-0.035983 -0.042333,-0.061383 -0.023283,-0.023283 -0.067733,-0.042333 -0.040217,-0.016933 -0.08255,-0.016933 -0.042333,0 -0.08255,0.016933 -0.033867,0.014817 -0.0635,0.040217 -0.0254,0.023283 -0.042333,0.059267 -0.014817,0.03175 -0.014817,0.06985 0,0.061383 0.035983,0.1164167 z m 0.13335,0.2667 q -0.09525,0.040217 -0.15875,0.12065 -0.0635,0.080433 -0.0635,0.1735666 0,0.04445 0.021167,0.091016 0.01905,0.04233 0.055033,0.07408 0.033867,0.03175 0.080433,0.0508 0.04445,0.01905 0.097367,0.01905 0.052917,0 0.097367,-0.01905 0.055033,-0.02328 0.080433,-0.04657 0.033867,-0.03175 0.052917,-0.07197 0.01905,-0.040216 0.01905,-0.091016 0,-0.097367 -0.0762,-0.1799166 -0.071967,-0.078317 -0.2053166,-0.12065 z m 0.3873499,-0.381 q 0,0.09525 -0.05715,0.1799167 -0.059267,0.086783 -0.1524,0.1375833 0.1164167,0.055033 0.18415,0.1502833 0.06985,0.097367 0.06985,0.2137833 0,0.074083 -0.03175,0.1418163 -0.033867,0.07197 -0.084667,0.116417 -0.052917,0.04657 -0.1291167,0.0762 -0.06985,0.02752 -0.15875,0.02752 -0.0889,0 -0.15875,-0.02752 -0.080433,-0.03175 -0.1291166,-0.07408 -0.048683,-0.04445 -0.084667,-0.1143 -0.029633,-0.05927 -0.029633,-0.1375836 0,-0.1164166 0.071967,-0.2137833 0.0762,-0.1016 0.1926167,-0.1545167 -0.093133,-0.048683 -0.14605,-0.1291166 -0.055033,-0.084667 -0.055033,-0.1799167 0,-0.06985 0.027517,-0.127 0.027517,-0.059267 0.0762,-0.1037166 0.046567,-0.04445 0.1121834,-0.06985 0.0635,-0.0254 0.1375833,-0.0254 0.078317,0 0.1375833,0.023283 0.06985,0.027517 0.1100667,0.067733 0.048683,0.048683 0.071967,0.1016 0.0254,0.05715 0.0254,0.12065 z"
       style="font-size:2.11666656px;stroke-width:0.26458332px"
       id="path905" />
    <path
       d="m 5.4359902,9.5312471 h 0.762 v 0.1418167 h -0.762 z"
       style="font-size:2.11666656px;stroke-width:0.26458332px"
       id="path907" />
    <path
       d="m 6.9769236,8.9470471 v 1.3207999 h -0.14605 V 9.1311971 l -0.2667,0.078317 -0.033867,-0.08255 0.3450167,-0.1799167 z"
       style="font-size:2.11666656px;stroke-width:0.26458332px"
       id="path909" />
    <path
       d="m 7.5674732,9.1544805 q 0.055033,-0.097367 0.1566333,-0.1566334 0.097367,-0.05715 0.2116667,-0.05715 0.080433,0 0.1481666,0.027517 0.065617,0.027517 0.1227667,0.080433 0.052917,0.0508 0.08255,0.1185334 0.029633,0.06985 0.029633,0.1439333 0,0.0635 -0.01905,0.1164166 -0.01905,0.05715 -0.046567,0.1037167 -0.029633,0.052917 -0.067733,0.097367 -0.0254,0.029633 -0.08255,0.08255 l -0.127,0.1185333 -0.061383,0.061383 q -0.046567,0.046567 -0.067733,0.074083 -0.042333,0.055033 -0.0635,0.084666 -0.035983,0.04868 -0.055033,0.0889 h 0.55245 q 0.00847,0 0.023283,-0.01058 0.010583,-0.0085 0.021167,-0.0085 h 0.00635 v 0.148167 H 7.5568899 v -0.09313 q 0.08255,-0.162984 0.1693333,-0.2667003 0.1016,-0.1227666 0.1756833,-0.1883833 l 0.1016,-0.093133 q 0.046567,-0.040217 0.084667,-0.091017 0.040217,-0.0508 0.052917,-0.078317 0.01905,-0.0381 0.0254,-0.074083 0.00635,-0.033867 0.00635,-0.06985 0,-0.046567 -0.01905,-0.091017 -0.016933,-0.040217 -0.052917,-0.0762 -0.035983,-0.035983 -0.080433,-0.055033 -0.048683,-0.021167 -0.0889,-0.021167 -0.0508,0 -0.097367,0.016933 -0.04445,0.016933 -0.0762,0.0381 -0.0381,0.027517 -0.052917,0.046567 -0.01905,0.023283 -0.021167,0.042333 -0.00212,0.0127 -0.00847,0.0254 z"
       style="font-size:2.11666656px;stroke-width:0.26458332px"
       id="path911" />
    <path
       d="m 8.6109899,9.5312471 h 0.762 v 0.1418167 h -0.762 z"
       style="font-size:2.11666656px;stroke-width:0.26458332px"
       id="path913" />
    <path
       d="m 9.68414,9.1544805 q 0.055033,-0.097367 0.1566333,-0.1566334 0.097367,-0.05715 0.2116667,-0.05715 0.08043,0 0.148167,0.027517 0.06562,0.027517 0.122766,0.080433 0.05292,0.0508 0.08255,0.1185334 0.02963,0.06985 0.02963,0.1439333 0,0.0635 -0.01905,0.1164166 -0.01905,0.05715 -0.04657,0.1037167 -0.02963,0.052917 -0.06773,0.097367 -0.0254,0.029633 -0.08255,0.08255 l -0.127,0.1185333 -0.06138,0.061383 q -0.046566,0.046567 -0.067733,0.074083 -0.042333,0.055033 -0.0635,0.084666 -0.035983,0.04868 -0.055033,0.0889 h 0.5524504 q 0.0085,0 0.02328,-0.01058 0.01058,-0.0085 0.02117,-0.0085 h 0.0063 v 0.148167 H 9.6735566 v -0.09313 Q 9.7561066,10.01173 9.84289,9.9080137 9.94449,9.7852471 10.018573,9.7196304 l 0.1016,-0.093133 q 0.04657,-0.040217 0.08467,-0.091017 0.04022,-0.0508 0.05292,-0.078317 0.01905,-0.0381 0.0254,-0.074083 0.0064,-0.033867 0.0064,-0.06985 0,-0.046567 -0.01905,-0.091017 -0.01693,-0.040217 -0.05292,-0.0762 -0.03598,-0.035983 -0.08043,-0.055033 -0.04868,-0.021167 -0.0889,-0.021167 -0.0508,0 -0.097367,0.016933 -0.04445,0.016933 -0.0762,0.0381 -0.0381,0.027517 -0.052917,0.046567 -0.01905,0.023283 -0.021167,0.042333 -0.00212,0.0127 -0.00847,0.0254 z"
       style="font-size:2.11666656px;stroke-width:0.26458332px"
       id="path915" />
    <path
       d="m 10.742473,9.1544805 q 0.05503,-0.097367 0.156634,-0.1566334 0.09737,-0.05715 0.211666,-0.05715 0.08043,0 0.148167,0.027517 0.06562,0.027517 0.122767,0.080433 0.05292,0.0508 0.08255,0.1185334 0.02963,0.06985 0.02963,0.1439333 0,0.0635 -0.01905,0.1164166 -0.01905,0.05715 -0.04657,0.1037167 -0.02963,0.052917 -0.06773,0.097367 -0.0254,0.029633 -0.08255,0.08255 l -0.127,0.1185333 -0.06138,0.061383 q -0.04657,0.046567 -0.06773,0.074083 -0.04233,0.055033 -0.0635,0.084666 -0.03598,0.04868 -0.05503,0.0889 h 0.55245 q 0.0085,0 0.02328,-0.01058 0.01058,-0.0085 0.02117,-0.0085 h 0.0063 v 0.148167 h -0.7747 v -0.09313 q 0.08255,-0.162984 0.169333,-0.2667003 0.1016,-0.1227666 0.175684,-0.1883833 l 0.1016,-0.093133 q 0.04657,-0.040217 0.08467,-0.091017 0.04022,-0.0508 0.05292,-0.078317 0.01905,-0.0381 0.0254,-0.074083 0.0063,-0.033867 0.0063,-0.06985 0,-0.046567 -0.01905,-0.091017 -0.01693,-0.040217 -0.05292,-0.0762 -0.03598,-0.035983 -0.08043,-0.055033 -0.04868,-0.021167 -0.0889,-0.021167 -0.0508,0 -0.09737,0.016933 -0.04445,0.016933 -0.0762,0.0381 -0.0381,0.027517 -0.05292,0.046567 -0.01905,0.023283 -0.02117,0.042333 -0.0021,0.0127 -0.0085,0.0254 z"
       style="font-size:2.11666656px;stroke-width:0.26458332px"
       id="path917" />
  </g>
</svg>
